# xmcd CD database file
#
# Track frame offsets:
#	150
#	25050
#	69710
#	90805
#	121803
#	160180
#	209317
#	241272
#	274032
#	311434
#
# Disc length: 4712 seconds
#
# Revision: 0
# Processed by: cddbd v1.5.1PL0 Copyright (c) Steve Scherf et al.
# Submitted via: CDex 1.51
#
DISCID=7712660a
DTITLE=Various Artist - Straight No Chaser (Blue Note)
DYEAR=1900
DGENRE=Jazz
TTITLE0=02 - Cantaloupe Island-Herbie Hancock
TTITLE1=03 - Ronnie's Bonnie-Reuben Wilson
TTITLE2=05 - Alfie's Theme-John Patton
TTITLE3=06 - Cool Blues-Lou Donaldson
TTITLE4=07 - Crisis-Art Blakey
TTITLE5=09 - Sookie Sookie-Grant Green
TTITLE6=01 - Goin' Down South-Bobby Hutcherson
TTITLE7=02 - Song For My Father-Horace Silver
TTITLE8=03 - Blind Man, Blind Man-Herbie Hancock
TTITLE9=04 - Filthy McNasty-Horace Silver
EXTD=
EXTT0=
EXTT1=
EXTT2=
EXTT3=
EXTT4=
EXTT5=
EXTT6=
EXTT7=
EXTT8=
EXTT9=
PLAYORDER=
